# This file uses centimeters as units for non-parametric coordinates.

mtllib playerhandR.mtl
g default
v -1.079688 2.561002 -0.125591
v -0.886224 2.561002 -0.125591
v -1.079688 1.461844 -0.125591
v -0.886224 1.461844 -0.125591
v -1.079688 1.461844 0.125591
v -0.886224 1.461844 0.125591
v -1.079688 2.561002 0.125591
v -0.886224 2.561002 0.125591
v -1.079688 1.758460 -0.125591
v -0.886224 1.758460 -0.125591
v -0.886224 1.758460 0.125591
v -1.079688 1.758460 0.125591
v -1.079688 1.554670 0.125591
v -0.886224 1.554670 0.125591
v -0.886224 1.554670 -0.125591
v -1.079688 1.554670 -0.125591
v -1.185103 1.758460 0.125591
v -1.185103 1.758460 -0.125591
v -1.185103 1.554670 -0.125591
v -1.185103 1.554670 0.125591
v -1.373972 1.985394 -0.301644
v -1.163153 1.985394 -0.301644
v -1.299851 0.932045 -0.139488
v -1.202363 0.932045 -0.139488
v -1.269821 0.932045 0.139488
v -1.172333 0.932045 0.139488
v -1.309032 1.985394 0.301644
v -1.098212 1.985394 0.301644
vt 0.375000 0.000000
vt 0.625000 0.000000
vt 0.375000 0.250000
vt 0.625000 0.250000
vt 0.375000 0.500000
vt 0.625000 0.500000
vt 0.375000 0.750000
vt 0.625000 0.750000
vt 0.375000 1.000000
vt 0.625000 1.000000
vt 0.875000 0.000000
vt 0.875000 0.250000
vt 0.125000 0.000000
vt 0.125000 0.250000
vt 0.375000 0.182536
vt 0.625000 0.182536
vt 0.625000 0.567464
vt 0.875000 0.182536
vt 0.125000 0.182536
vt 0.375000 0.567464
vt 0.125000 0.228887
vt 0.375000 0.521113
vt 0.625000 0.521113
vt 0.875000 0.228887
vt 0.625000 0.228887
vt 0.375000 0.228887
vt 0.125000 0.182536
vt 0.375000 0.182536
vt 0.375000 0.228887
vt 0.125000 0.228887
vt 0.375000 0.000000
vt 0.625000 0.000000
vt 0.625000 0.250000
vt 0.375000 0.250000
vt 0.625000 0.500000
vt 0.375000 0.500000
vt 0.625000 0.750000
vt 0.375000 0.750000
vt 0.625000 1.000000
vt 0.375000 1.000000
vt 0.875000 0.000000
vt 0.875000 0.250000
vt 0.125000 0.000000
vt 0.125000 0.250000
vn -0.000000 0.000000 -1.000000
vn -0.000000 0.000000 -1.000000
vn -0.000000 0.000000 -1.000000
vn -0.000000 0.000000 -1.000000
vn -0.000000 -1.000000 0.000000
vn -0.000000 -1.000000 0.000000
vn -0.000000 -1.000000 0.000000
vn -0.000000 -1.000000 0.000000
vn 0.000000 0.000000 1.000000
vn 0.000000 0.000000 1.000000
vn 0.000000 0.000000 1.000000
vn 0.000000 0.000000 1.000000
vn 0.000000 1.000000 0.000000
vn 0.000000 1.000000 0.000000
vn 0.000000 1.000000 0.000000
vn 0.000000 1.000000 0.000000
vn 1.000000 -0.000000 0.000000
vn 1.000000 -0.000000 0.000000
vn 1.000000 -0.000000 0.000000
vn 1.000000 -0.000000 0.000000
vn -1.000000 0.000000 0.000000
vn -1.000000 0.000000 0.000000
vn -1.000000 0.000000 0.000000
vn -1.000000 0.000000 0.000000
vn -0.000000 0.000000 -1.000000
vn -0.000000 0.000000 -1.000000
vn 1.000000 -0.000000 0.000000
vn 1.000000 -0.000000 0.000000
vn 0.000000 0.000000 1.000000
vn 0.000000 0.000000 1.000000
vn -1.000000 0.000000 0.000000
vn -1.000000 0.000000 0.000000
vn -1.000000 0.000000 0.000000
vn -1.000000 0.000000 0.000000
vn 0.000000 0.000000 1.000000
vn 0.000000 0.000000 1.000000
vn 1.000000 -0.000000 0.000000
vn 1.000000 -0.000000 0.000000
vn -0.000000 0.000000 -1.000000
vn -0.000000 0.000000 -1.000000
vn -1.000000 0.000000 0.000000
vn -1.000000 0.000000 0.000000
vn -1.000000 0.000000 0.000000
vn -1.000000 0.000000 0.000000
vn 0.000000 1.000000 0.000000
vn 0.000000 1.000000 0.000000
vn 0.000000 1.000000 0.000000
vn 0.000000 1.000000 0.000000
vn -0.000000 0.000000 -1.000000
vn -0.000000 0.000000 -1.000000
vn -0.000000 -1.000000 0.000000
vn -0.000000 -1.000000 0.000000
vn -0.000000 -1.000000 0.000000
vn -0.000000 -1.000000 0.000000
vn 0.000000 0.000000 1.000000
vn 0.000000 0.000000 1.000000
vn -0.000000 -0.152151 -0.988357
vn -0.000000 -0.152151 -0.988357
vn -0.000000 -0.152151 -0.988357
vn -0.000000 -0.152151 -0.988357
vn -0.000000 -1.000000 -0.000001
vn -0.000000 -1.000000 -0.000001
vn -0.000000 -1.000000 -0.000000
vn -0.000000 -1.000000 0.000000
vn -0.000000 -0.152151 0.988357
vn -0.000000 -0.152151 0.988357
vn -0.000000 -0.152152 0.988357
vn -0.000000 -0.152152 0.988357
vn 0.000000 1.000000 0.000001
vn 0.000000 1.000000 -0.000000
vn 0.000000 1.000000 0.000001
vn 0.000000 1.000000 -0.000000
vn 0.992837 -0.053410 -0.106873
vn 0.992837 -0.053410 -0.106873
vn 0.992837 -0.053410 -0.106873
vn 0.992837 -0.053411 -0.106872
vn -0.992837 -0.053410 0.106873
vn -0.992837 -0.053410 0.106873
vn -0.992837 -0.053410 0.106873
vn -0.992837 -0.053410 0.106872
s 1
g pCube7
usemtl initialShadingGroup
f 9/15/1 10/16/2 16/26/3
f 16/26/3 10/16/2 15/25/4
s 2
f 3/3/5 4/4/6 5/5/7
f 5/5/7 4/4/6 6/6/8
s 3
f 13/22/9 14/23/10 12/20/11
f 12/20/11 14/23/10 11/17/12
s 4
f 7/7/13 8/8/14 1/9/15
f 1/9/15 8/8/14 2/10/16
s 5
f 10/16/17 11/18/18 15/25/19
f 15/25/19 11/18/18 14/24/20
s 6
f 17/27/21 18/28/22 20/30/23
f 20/30/23 18/28/22 19/29/24
s 1
f 1/1/25 2/2/26 9/15/1
f 9/15/1 2/2/26 10/16/2
s 5
f 2/2/27 8/11/28 10/16/17
f 10/16/17 8/11/28 11/18/18
s 3
f 12/20/11 11/17/12 7/7/29
f 7/7/29 11/17/12 8/8/30
s 7
f 7/13/31 1/1/32 12/19/33
f 12/19/33 1/1/32 9/15/34
s 3
f 5/5/35 6/6/36 13/22/9
f 13/22/9 6/6/36 14/23/10
s 5
f 15/25/19 14/24/20 4/4/37
f 4/4/37 14/24/20 6/12/38
s 1
f 16/26/3 15/25/4 3/3/39
f 3/3/39 15/25/4 4/4/40
s 8
f 13/21/41 16/26/42 5/14/43
f 5/14/43 16/26/42 3/3/44
s 9
f 12/19/45 9/15/46 17/27/47
f 17/27/47 9/15/46 18/28/48
s 1
f 9/15/1 16/26/3 18/28/49
f 18/28/49 16/26/3 19/29/50
s 10
f 16/26/51 13/21/52 19/29/53
f 19/29/53 13/21/52 20/30/54
s 3
f 13/21/9 12/19/11 20/30/55
f 20/30/55 12/19/11 17/27/56
s 11
f 21/31/57 22/32/58 23/34/59
f 23/34/59 22/32/58 24/33/60
s 12
f 23/34/61 24/33/62 25/36/63
f 25/36/63 24/33/62 26/35/64
s 13
f 25/36/65 26/35/66 27/38/67
f 27/38/67 26/35/66 28/37/68
s 14
f 28/37/69 22/39/70 27/38/71
f 27/38/71 22/39/70 21/40/72
s 15
f 28/41/73 26/42/74 22/32/75
f 22/32/75 26/42/74 24/33/76
s 16
f 21/31/77 23/34/78 27/43/79
f 27/43/79 23/34/78 25/44/80
