# This file uses centimeters as units for non-parametric coordinates.

mtllib soulhandL.mtl
g default
v 1.871546 0.945509 -0.247535
v 1.869222 0.770356 -0.325790
v 1.868998 0.582641 -0.286158
v 1.870961 0.454064 -0.143779
v 1.874361 0.433738 0.046964
v 1.877898 0.529426 0.213214
v 1.880222 0.704578 0.291468
v 1.880446 0.892293 0.251837
v 1.878483 1.020870 0.109458
v 1.875084 1.041196 -0.081285
v 0.813120 0.742847 0.002332
vt 0.702254 0.103054
vt 0.577254 0.012236
vt 0.422746 0.012236
vt 0.297746 0.103054
vt 0.250000 0.250000
vt 0.297746 0.396946
vt 0.422746 0.487764
vt 0.577254 0.487764
vt 0.702254 0.396946
vt 0.750000 0.250000
vt 0.250000 0.500000
vt 0.300000 0.500000
vt 0.350000 0.500000
vt 0.400000 0.500000
vt 0.450000 0.500000
vt 0.500000 0.500000
vt 0.550000 0.500000
vt 0.600000 0.500000
vt 0.650000 0.500000
vt 0.700000 0.500000
vt 0.750000 0.500000
vt 0.500000 1.000000
vn 0.999819 -0.005066 -0.018358
vn 0.999819 -0.005066 -0.018358
vn 0.999819 -0.005066 -0.018358
vn 0.999819 -0.005066 -0.018358
vn 0.999819 -0.005066 -0.018358
vn 0.999819 -0.005066 -0.018358
vn 0.999819 -0.005066 -0.018358
vn 0.999819 -0.005066 -0.018358
vn 0.999819 -0.005066 -0.018358
vn 0.999819 -0.005066 -0.018358
vn -0.281995 0.394480 -0.874565
vn -0.281995 0.394480 -0.874565
vn -0.281995 0.394480 -0.874565
vn -0.286153 -0.197607 -0.937586
vn -0.286153 -0.197607 -0.937586
vn -0.286153 -0.197607 -0.937586
vn -0.283315 -0.713695 -0.640603
vn -0.283315 -0.713695 -0.640603
vn -0.283315 -0.713695 -0.640603
vn -0.274565 -0.956658 -0.097052
vn -0.274565 -0.956658 -0.097052
vn -0.274565 -0.956658 -0.097052
vn -0.263246 -0.833692 0.485447
vn -0.263246 -0.833692 0.485447
vn -0.263246 -0.833692 0.485448
vn -0.253682 -0.391765 0.884401
vn -0.253682 -0.391765 0.884401
vn -0.253682 -0.391765 0.884401
vn -0.249524 0.200321 0.947422
vn -0.249524 0.200321 0.947422
vn -0.249524 0.200321 0.947422
vn -0.252362 0.716410 0.650439
vn -0.252362 0.716410 0.650439
vn -0.252362 0.716410 0.650439
vn -0.261111 0.959373 0.106888
vn -0.261111 0.959373 0.106888
vn -0.261111 0.959373 0.106888
vn -0.272430 0.836406 -0.475611
vn -0.272430 0.836406 -0.475611
vn -0.272430 0.836406 -0.475612
s off
g pCone1
usemtl lambert4SG
f 1/1/1 10/10/2 9/9/3 8/8/4 7/7/5 6/6/6 5/5/7 4/4/8 3/3/9 2/2/10
f 1/11/11 2/12/12 11/22/13
f 2/12/14 3/13/15 11/22/16
f 3/13/17 4/14/18 11/22/19
f 4/14/20 5/15/21 11/22/22
f 5/15/23 6/16/24 11/22/25
f 6/16/26 7/17/27 11/22/28
f 7/17/29 8/18/30 11/22/31
f 8/18/32 9/19/33 11/22/34
f 9/19/35 10/20/36 11/22/37
f 10/20/38 1/21/39 11/22/40
g default
v 1.890305 0.655058 -0.064027
v 1.804761 0.655058 -0.036232
v 1.804761 0.655058 0.053714
v 1.890305 0.655058 0.081509
v 1.943174 0.655058 0.008741
v 1.904918 0.720144 -0.109001
v 1.766504 0.720144 -0.064027
v 1.766504 0.720144 0.081509
v 1.904918 0.720144 0.126483
v 1.990462 0.720144 0.008741
v 1.904918 0.800594 -0.109001
v 1.766504 0.800594 -0.064027
v 1.766504 0.800594 0.081509
v 1.904918 0.800594 0.126483
v 1.990462 0.800594 0.008741
v 1.890305 0.865680 -0.064027
v 1.804761 0.865680 -0.036232
v 1.804761 0.865680 0.053714
v 1.890305 0.865680 0.081509
v 1.943174 0.865680 0.008741
v 1.866661 0.630197 0.008741
v 1.866661 0.890541 0.008741
vt 0.000000 0.200000
vt 0.200000 0.200000
vt 0.400000 0.200000
vt 0.600000 0.200000
vt 0.800000 0.200000
vt 1.000000 0.200000
vt 0.000000 0.400000
vt 0.200000 0.400000
vt 0.400000 0.400000
vt 0.600000 0.400000
vt 0.800000 0.400000
vt 1.000000 0.400000
vt 0.000000 0.600000
vt 0.200000 0.600000
vt 0.400000 0.600000
vt 0.600000 0.600000
vt 0.800000 0.600000
vt 1.000000 0.600000
vt 0.000000 0.800000
vt 0.200000 0.800000
vt 0.400000 0.800000
vt 0.600000 0.800000
vt 0.800000 0.800000
vt 1.000000 0.800000
vt 0.100000 0.000000
vt 0.300000 0.000000
vt 0.500000 0.000000
vt 0.700000 0.000000
vt 0.900000 0.000000
vt 0.100000 1.000000
vt 0.300000 1.000000
vt 0.500000 1.000000
vt 0.700000 1.000000
vt 0.900000 1.000000
vn -0.266405 -0.506732 -0.819909
vn -0.266405 -0.506732 -0.819909
vn -0.266405 -0.506732 -0.819909
vn -0.266405 -0.506732 -0.819909
vn -0.862104 -0.506732 -0.000000
vn -0.862104 -0.506732 -0.000000
vn -0.862104 -0.506732 -0.000000
vn -0.862104 -0.506732 -0.000000
vn -0.266405 -0.506732 0.819909
vn -0.266405 -0.506732 0.819909
vn -0.266405 -0.506732 0.819909
vn -0.266405 -0.506732 0.819909
vn 0.697457 -0.506732 0.506732
vn 0.697457 -0.506732 0.506732
vn 0.697457 -0.506732 0.506732
vn 0.697457 -0.506732 0.506732
vn 0.697457 -0.506732 -0.506732
vn 0.697457 -0.506732 -0.506732
vn 0.697457 -0.506732 -0.506732
vn 0.697457 -0.506732 -0.506732
vn -0.309017 0.000000 -0.951057
vn -0.309017 0.000000 -0.951057
vn -0.309017 0.000000 -0.951057
vn -0.309017 0.000000 -0.951057
vn -1.000000 0.000000 -0.000000
vn -1.000000 0.000000 -0.000000
vn -1.000000 0.000000 -0.000000
vn -1.000000 0.000000 -0.000000
vn -0.309017 0.000000 0.951056
vn -0.309017 0.000000 0.951056
vn -0.309017 0.000000 0.951056
vn -0.309017 0.000000 0.951056
vn 0.809017 -0.000000 0.587785
vn 0.809017 -0.000000 0.587785
vn 0.809017 -0.000000 0.587785
vn 0.809017 -0.000000 0.587785
vn 0.809017 -0.000000 -0.587785
vn 0.809017 -0.000000 -0.587785
vn 0.809017 -0.000000 -0.587785
vn 0.809017 -0.000000 -0.587785
vn -0.266405 0.506732 -0.819909
vn -0.266405 0.506732 -0.819909
vn -0.266405 0.506732 -0.819909
vn -0.266405 0.506732 -0.819909
vn -0.862104 0.506732 -0.000000
vn -0.862104 0.506732 -0.000000
vn -0.862104 0.506732 -0.000000
vn -0.862104 0.506732 -0.000000
vn -0.266405 0.506732 0.819909
vn -0.266405 0.506732 0.819909
vn -0.266405 0.506732 0.819909
vn -0.266405 0.506732 0.819909
vn 0.697457 0.506732 0.506732
vn 0.697457 0.506732 0.506732
vn 0.697457 0.506732 0.506732
vn 0.697457 0.506732 0.506732
vn 0.697457 0.506732 -0.506732
vn 0.697457 0.506732 -0.506732
vn 0.697457 0.506732 -0.506732
vn 0.697457 0.506732 -0.506732
vn -0.115167 -0.927957 -0.354448
vn -0.115167 -0.927957 -0.354448
vn -0.115167 -0.927957 -0.354448
vn -0.372689 -0.927957 -0.000000
vn -0.372689 -0.927957 -0.000000
vn -0.372689 -0.927957 -0.000000
vn -0.115167 -0.927957 0.354448
vn -0.115167 -0.927957 0.354448
vn -0.115167 -0.927957 0.354448
vn 0.301511 -0.927957 0.219061
vn 0.301511 -0.927957 0.219061
vn 0.301511 -0.927957 0.219061
vn 0.301511 -0.927957 -0.219061
vn 0.301511 -0.927957 -0.219061
vn 0.301511 -0.927957 -0.219061
vn -0.115167 0.927957 -0.354448
vn -0.115167 0.927957 -0.354448
vn -0.115167 0.927957 -0.354448
vn -0.372689 0.927957 0.000000
vn -0.372689 0.927957 0.000000
vn -0.372689 0.927957 0.000000
vn -0.115167 0.927957 0.354448
vn -0.115167 0.927957 0.354448
vn -0.115167 0.927957 0.354448
vn 0.301511 0.927957 0.219061
vn 0.301511 0.927957 0.219061
vn 0.301511 0.927957 0.219061
vn 0.301511 0.927957 -0.219061
vn 0.301511 0.927957 -0.219061
vn 0.301511 0.927957 -0.219061
s off
g pCone1 pSphere3
usemtl lambert3SG
f 12/23/41 13/24/42 18/30/43 17/29/44
f 13/24/45 14/25/46 19/31/47 18/30/48
f 14/25/49 15/26/50 20/32/51 19/31/52
f 15/26/53 16/27/54 21/33/55 20/32/56
f 16/27/57 12/28/58 17/34/59 21/33/60
f 17/29/61 18/30/62 23/36/63 22/35/64
f 18/30/65 19/31/66 24/37/67 23/36/68
f 19/31/69 20/32/70 25/38/71 24/37/72
f 20/32/73 21/33/74 26/39/75 25/38/76
f 21/33/77 17/34/78 22/40/79 26/39/80
f 22/35/81 23/36/82 28/42/83 27/41/84
f 23/36/85 24/37/86 29/43/87 28/42/88
f 24/37/89 25/38/90 30/44/91 29/43/92
f 25/38/93 26/39/94 31/45/95 30/44/96
f 26/39/97 22/40/98 27/46/99 31/45/100
f 13/24/101 12/23/102 32/47/103
f 14/25/104 13/24/105 32/48/106
f 15/26/107 14/25/108 32/49/109
f 16/27/110 15/26/111 32/50/112
f 12/28/113 16/27/114 32/51/115
f 27/41/116 28/42/117 33/52/118
f 28/42/119 29/43/120 33/53/121
f 29/43/122 30/44/123 33/54/124
f 30/44/125 31/45/126 33/55/127
f 31/45/128 27/46/129 33/56/130
