# This file uses centimeters as units for non-parametric coordinates.

mtllib soulhandR.mtl
g default
v -1.965792 1.018922 0.115908
v -1.965420 0.890352 0.258305
v -1.965643 0.702636 0.297936
v -1.966378 0.527478 0.219664
v -1.967343 0.431781 0.053385
v -1.968169 0.452098 -0.137388
v -1.968542 0.580669 -0.279785
v -1.968319 0.768384 -0.319417
v -1.967584 0.943542 -0.241144
v -1.966619 1.039240 -0.074865
v -0.905199 0.733223 -0.015585
vt 0.702254 0.103054
vt 0.577254 0.012236
vt 0.422746 0.012236
vt 0.297746 0.103054
vt 0.250000 0.250000
vt 0.297746 0.396946
vt 0.422746 0.487764
vt 0.577254 0.487764
vt 0.702254 0.396946
vt 0.750000 0.250000
vt 0.250000 0.500000
vt 0.300000 0.500000
vt 0.350000 0.500000
vt 0.400000 0.500000
vt 0.450000 0.500000
vt 0.500000 0.500000
vt 0.550000 0.500000
vt 0.600000 0.500000
vt 0.650000 0.500000
vt 0.700000 0.500000
vt 0.750000 0.500000
vt 0.500000 1.000000
vn -0.999987 0.002154 0.004563
vn -0.999987 0.002154 0.004563
vn -0.999987 0.002154 0.004563
vn -0.999987 0.002154 0.004563
vn -0.999987 0.002154 0.004563
vn -0.999987 0.002154 0.004563
vn -0.999987 0.002154 0.004563
vn -0.999987 0.002154 0.004563
vn -0.999987 0.002154 0.004563
vn -0.999987 0.002154 0.004563
vn 0.272370 0.714515 0.644424
vn 0.272370 0.714515 0.644424
vn 0.272370 0.714515 0.644424
vn 0.272614 0.198435 0.941438
vn 0.272614 0.198435 0.941438
vn 0.272614 0.198435 0.941438
vn 0.271051 -0.393660 0.878387
vn 0.271051 -0.393660 0.878387
vn 0.271051 -0.393660 0.878387
vn 0.268278 -0.835611 0.479355
vn 0.268278 -0.835611 0.479355
vn 0.268278 -0.835611 0.479355
vn 0.265354 -0.958607 -0.103241
vn 0.265354 -0.958607 -0.103241
vn 0.265354 -0.958608 -0.103241
vn 0.263397 -0.715669 -0.646869
vn 0.263397 -0.715669 -0.646869
vn 0.263397 -0.715669 -0.646869
vn 0.263153 -0.199590 -0.943883
vn 0.263153 -0.199590 -0.943883
vn 0.263153 -0.199590 -0.943883
vn 0.264716 0.392506 -0.880832
vn 0.264716 0.392506 -0.880832
vn 0.264716 0.392506 -0.880832
vn 0.267489 0.834457 -0.481800
vn 0.267489 0.834457 -0.481800
vn 0.267489 0.834457 -0.481800
vn 0.270413 0.957454 0.100796
vn 0.270413 0.957454 0.100796
vn 0.270413 0.957454 0.100796
s off
g pCone3
usemtl lambert4SG
f 1/1/1 10/10/2 9/9/3 8/8/4 7/7/5 6/6/6 5/5/7 4/4/8 3/3/9 2/2/10
f 1/11/11 2/12/12 11/22/13
f 2/12/14 3/13/15 11/22/16
f 3/13/17 4/14/18 11/22/19
f 4/14/20 5/15/21 11/22/22
f 5/15/23 6/16/24 11/22/25
f 6/16/26 7/17/27 11/22/28
f 7/17/29 8/18/30 11/22/31
f 8/18/32 9/19/33 11/22/34
f 9/19/35 10/20/36 11/22/37
f 10/20/38 1/21/39 11/22/40
g default
v -1.956427 0.614468 -0.096581
v -2.041971 0.614468 -0.068786
v -2.041971 0.614468 0.021160
v -1.956427 0.614468 0.048955
v -1.903558 0.614468 -0.023813
v -1.941814 0.679554 -0.141554
v -2.080228 0.679554 -0.096581
v -2.080228 0.679554 0.048955
v -1.941814 0.679554 0.093929
v -1.856270 0.679554 -0.023813
v -1.941814 0.760005 -0.141554
v -2.080228 0.760005 -0.096581
v -2.080228 0.760005 0.048955
v -1.941814 0.760005 0.093929
v -1.856270 0.760005 -0.023813
v -1.956427 0.825091 -0.096581
v -2.041971 0.825091 -0.068786
v -2.041971 0.825091 0.021160
v -1.956427 0.825091 0.048955
v -1.903558 0.825091 -0.023813
v -1.980071 0.589607 -0.023813
v -1.980071 0.849951 -0.023813
vt 0.000000 0.200000
vt 0.200000 0.200000
vt 0.400000 0.200000
vt 0.600000 0.200000
vt 0.800000 0.200000
vt 1.000000 0.200000
vt 0.000000 0.400000
vt 0.200000 0.400000
vt 0.400000 0.400000
vt 0.600000 0.400000
vt 0.800000 0.400000
vt 1.000000 0.400000
vt 0.000000 0.600000
vt 0.200000 0.600000
vt 0.400000 0.600000
vt 0.600000 0.600000
vt 0.800000 0.600000
vt 1.000000 0.600000
vt 0.000000 0.800000
vt 0.200000 0.800000
vt 0.400000 0.800000
vt 0.600000 0.800000
vt 0.800000 0.800000
vt 1.000000 0.800000
vt 0.100000 0.000000
vt 0.300000 0.000000
vt 0.500000 0.000000
vt 0.700000 0.000000
vt 0.900000 0.000000
vt 0.100000 1.000000
vt 0.300000 1.000000
vt 0.500000 1.000000
vt 0.700000 1.000000
vt 0.900000 1.000000
vn -0.266405 -0.506732 -0.819909
vn -0.266405 -0.506732 -0.819909
vn -0.266405 -0.506732 -0.819909
vn -0.266405 -0.506732 -0.819909
vn -0.862104 -0.506732 -0.000000
vn -0.862104 -0.506732 -0.000000
vn -0.862104 -0.506732 -0.000000
vn -0.862104 -0.506732 -0.000000
vn -0.266405 -0.506732 0.819909
vn -0.266405 -0.506732 0.819909
vn -0.266405 -0.506732 0.819909
vn -0.266405 -0.506732 0.819909
vn 0.697457 -0.506732 0.506732
vn 0.697457 -0.506732 0.506732
vn 0.697457 -0.506732 0.506732
vn 0.697457 -0.506732 0.506732
vn 0.697457 -0.506732 -0.506732
vn 0.697457 -0.506732 -0.506732
vn 0.697457 -0.506732 -0.506732
vn 0.697457 -0.506732 -0.506732
vn -0.309017 0.000000 -0.951057
vn -0.309017 0.000000 -0.951057
vn -0.309017 0.000000 -0.951057
vn -0.309017 0.000000 -0.951057
vn -1.000000 -0.000000 -0.000000
vn -1.000000 -0.000000 -0.000000
vn -1.000000 -0.000000 -0.000000
vn -1.000000 -0.000000 -0.000000
vn -0.309017 -0.000000 0.951056
vn -0.309017 -0.000000 0.951056
vn -0.309017 -0.000000 0.951056
vn -0.309017 -0.000000 0.951056
vn 0.809017 -0.000000 0.587785
vn 0.809017 -0.000000 0.587785
vn 0.809017 -0.000000 0.587785
vn 0.809017 -0.000000 0.587785
vn 0.809017 0.000000 -0.587785
vn 0.809017 0.000000 -0.587785
vn 0.809017 0.000000 -0.587785
vn 0.809017 0.000000 -0.587785
vn -0.266405 0.506732 -0.819909
vn -0.266405 0.506732 -0.819909
vn -0.266405 0.506732 -0.819909
vn -0.266405 0.506732 -0.819909
vn -0.862104 0.506732 -0.000000
vn -0.862104 0.506732 -0.000000
vn -0.862104 0.506732 -0.000000
vn -0.862104 0.506732 -0.000000
vn -0.266405 0.506732 0.819909
vn -0.266405 0.506732 0.819909
vn -0.266405 0.506732 0.819909
vn -0.266405 0.506732 0.819909
vn 0.697457 0.506732 0.506732
vn 0.697457 0.506732 0.506732
vn 0.697457 0.506732 0.506732
vn 0.697457 0.506732 0.506732
vn 0.697457 0.506732 -0.506732
vn 0.697457 0.506732 -0.506732
vn 0.697457 0.506732 -0.506732
vn 0.697457 0.506732 -0.506732
vn -0.115167 -0.927957 -0.354448
vn -0.115167 -0.927957 -0.354448
vn -0.115167 -0.927957 -0.354448
vn -0.372689 -0.927957 -0.000000
vn -0.372689 -0.927957 -0.000000
vn -0.372689 -0.927957 -0.000000
vn -0.115167 -0.927957 0.354448
vn -0.115167 -0.927957 0.354448
vn -0.115167 -0.927957 0.354448
vn 0.301511 -0.927957 0.219061
vn 0.301511 -0.927957 0.219061
vn 0.301511 -0.927957 0.219061
vn 0.301511 -0.927957 -0.219061
vn 0.301511 -0.927957 -0.219061
vn 0.301511 -0.927957 -0.219061
vn -0.115167 0.927957 -0.354448
vn -0.115167 0.927957 -0.354448
vn -0.115167 0.927957 -0.354448
vn -0.372689 0.927957 0.000000
vn -0.372689 0.927957 0.000000
vn -0.372689 0.927957 0.000000
vn -0.115167 0.927957 0.354448
vn -0.115167 0.927957 0.354448
vn -0.115167 0.927957 0.354448
vn 0.301511 0.927957 0.219061
vn 0.301511 0.927957 0.219061
vn 0.301511 0.927957 0.219061
vn 0.301511 0.927957 -0.219061
vn 0.301511 0.927957 -0.219061
vn 0.301511 0.927957 -0.219061
s off
g pCone3 pSphere2
usemtl lambert3SG
f 12/23/41 13/24/42 18/30/43 17/29/44
f 13/24/45 14/25/46 19/31/47 18/30/48
f 14/25/49 15/26/50 20/32/51 19/31/52
f 15/26/53 16/27/54 21/33/55 20/32/56
f 16/27/57 12/28/58 17/34/59 21/33/60
f 17/29/61 18/30/62 23/36/63 22/35/64
f 18/30/65 19/31/66 24/37/67 23/36/68
f 19/31/69 20/32/70 25/38/71 24/37/72
f 20/32/73 21/33/74 26/39/75 25/38/76
f 21/33/77 17/34/78 22/40/79 26/39/80
f 22/35/81 23/36/82 28/42/83 27/41/84
f 23/36/85 24/37/86 29/43/87 28/42/88
f 24/37/89 25/38/90 30/44/91 29/43/92
f 25/38/93 26/39/94 31/45/95 30/44/96
f 26/39/97 22/40/98 27/46/99 31/45/100
f 13/24/101 12/23/102 32/47/103
f 14/25/104 13/24/105 32/48/106
f 15/26/107 14/25/108 32/49/109
f 16/27/110 15/26/111 32/50/112
f 12/28/113 16/27/114 32/51/115
f 27/41/116 28/42/117 33/52/118
f 28/42/119 29/43/120 33/53/121
f 29/43/122 30/44/123 33/54/124
f 30/44/125 31/45/126 33/55/127
f 31/45/128 27/46/129 33/56/130
